<svg width="100" height="26" viewBox="0 0 100 26" fill="none" xmlns="http://www.w3.org/2000/svg">
<g filter="url(#filter0_d_614_465)">
<path d="M22.7024 23.5639L21.5387 20.4005C21.5387 20.4005 19.6476 22.5096 16.8117 22.5096C14.3022 22.5096 12.5208 20.3277 12.5208 16.8369C12.5208 12.3643 14.775 10.7643 16.9934 10.7643C20.1931 10.7643 21.2112 12.8369 22.0841 15.4916L23.2478 19.128C24.4112 22.6549 26.593 25.4913 32.8837 25.4913C37.3931 25.4913 40.4474 24.1097 40.4474 20.4733C40.4474 17.528 38.7744 16.0007 35.6471 15.2733L33.32 14.7644C31.7202 14.4008 31.2475 13.7461 31.2475 12.6553C31.2475 11.4189 32.2291 10.6916 33.8293 10.6916C35.5745 10.6916 36.5199 11.3462 36.6655 12.9098L40.3018 12.4733C40.0109 9.20074 37.7565 7.85531 34.0475 7.85531C30.775 7.85531 27.575 9.09166 27.575 13.0552C27.575 15.5279 28.775 17.0916 31.7928 17.8188L34.2658 18.4004C36.1202 18.8369 36.7382 19.6004 36.7382 20.6553C36.7382 22.0004 35.4292 22.5459 32.9565 22.5459C29.284 22.5459 27.7569 20.6188 26.884 17.964L25.684 14.3279C24.1571 9.60069 21.7206 7.85531 16.8841 7.85531C11.5389 7.85531 8.70265 11.237 8.70265 16.9823C8.70265 22.5096 11.5389 25.4912 16.63 25.4912C20.7385 25.491 22.7024 23.5639 22.7024 23.5639V23.5639ZM7.14115 21.8547C6.77756 21.9639 6.41369 22.0368 5.94116 22.0368C5.06841 22.0368 4.45016 21.637 4.45016 20.5821V0.763333H0.631897V21.4911C0.631897 24.2183 2.52299 25.346 4.74103 25.346C5.4685 25.346 6.15946 25.2366 7.03208 25.0186L7.14115 21.8547ZM53.1382 21.2729C52.1927 21.9278 51.393 22.2552 50.3021 22.2552C48.92 22.2552 48.1566 21.5279 48.1566 19.746V11.2363H53.1749V8.25471H48.1927V4.21787L44.3382 4.69068V8.25457H41.9017V11.2362H44.3382V20.5455C44.3382 23.8918 46.2654 25.4909 49.3928 25.4909C51.102 25.4909 52.6291 25.1639 53.8293 24.4731L53.1382 21.2729V21.2729ZM56.4548 22.5819C56.4548 24.0732 57.6186 25.273 59.1095 25.273C60.6733 25.273 61.8368 24.0732 61.8368 22.5819C61.8368 21.0547 60.6732 19.8914 59.1095 19.8914C57.6185 19.8914 56.4548 21.0547 56.4548 22.5819ZM65.7895 11.2363V25.0549H69.6078V11.2363H73.8989V8.25471H69.6078V6.72721C69.6078 4.43644 70.5898 3.70912 72.1896 3.70912C73.317 3.70912 74.0805 3.96335 74.9534 4.43644L75.5715 1.236C74.5535 0.763333 73.3533 0.50882 71.8988 0.50882C68.6985 0.50882 65.7897 2.03604 65.7897 6.58163V8.25471H63.3533V11.2363H65.7895V11.2363ZM89.1133 11.5639C88.6768 8.83659 86.8951 7.85434 84.5677 7.85434C82.2404 7.85434 80.2405 8.90903 79.3675 11.4908L78.8948 8.25471H75.8039V25.0549H79.6222V15.564C79.6222 12.3272 81.2949 11.0909 83.0768 11.0909C84.9313 11.0909 85.6951 12.3272 85.6951 14.3271V25.0547H89.4769V15.5275C89.4769 12.3269 91.186 11.0906 92.968 11.0906C94.7863 11.0906 95.5497 12.3269 95.5497 14.327V25.0544H99.3679V12.9821C99.3679 9.38198 97.2588 7.8542 94.4588 7.8542C92.0954 7.85434 89.9862 8.90903 89.1133 11.5639V11.5639Z" fill="#EF1212"/>
<path d="M21.3287 21.2778C21.1111 21.4585 20.8353 21.6676 20.5074 21.8767C19.6295 22.4362 18.3548 23.0096 16.8117 23.0096C15.3977 23.0096 14.1806 22.3889 13.3296 21.2881C12.4863 20.1974 12.0208 18.6625 12.0208 16.8369C12.0208 14.5205 12.6049 12.8708 13.5492 11.7937C14.498 10.7116 15.7611 10.2643 16.9934 10.2643C18.72 10.2643 19.9151 10.832 20.7832 11.7983C21.6235 12.7337 22.1222 14.0069 22.559 15.3354L22.5603 15.3392L23.7227 18.9714C23.7229 18.9722 23.7232 18.9729 23.7234 18.9737C24.2896 20.6892 25.0835 22.1738 26.4501 23.2377C27.8145 24.2998 29.813 24.9913 32.8837 24.9913C35.1032 24.9913 36.886 24.6485 38.0984 23.9177C39.2715 23.2107 39.9474 22.121 39.9474 20.4733C39.9474 19.1029 39.562 18.1182 38.8597 17.3883C38.1449 16.6454 37.0513 16.1137 35.5371 15.761C35.536 15.7608 35.5349 15.7605 35.5338 15.7603L33.2132 15.2528L33.2092 15.252C32.369 15.061 31.7345 14.7757 31.316 14.3212C30.883 13.851 30.7475 13.2737 30.7475 12.6553C30.7475 11.8891 31.0596 11.2468 31.637 10.8108C32.1971 10.3878 32.9615 10.1916 33.8293 10.1916C34.7525 10.1916 35.5527 10.3627 36.1497 10.8162C36.6406 11.1892 36.942 11.7124 37.085 12.3558L39.7435 12.0368C39.538 10.7832 38.9897 9.92142 38.1695 9.34655C37.2255 8.68493 35.8534 8.35531 34.0475 8.35531C32.4607 8.35531 30.955 8.65726 29.861 9.3852C28.7982 10.0924 28.075 11.2323 28.075 13.0552C28.075 14.2088 28.3532 15.0904 28.932 15.7664C29.5166 16.4491 30.4598 16.9831 31.9086 17.3324C31.9091 17.3325 31.9095 17.3326 31.9099 17.3327L34.3802 17.9137L34.3803 17.9137C35.3481 18.1415 36.0674 18.4701 36.5467 18.9383C37.0456 19.4255 37.2382 20.0177 37.2382 20.6553C37.2382 21.0764 37.1344 21.4629 36.9101 21.7969C36.6878 22.1279 36.3692 22.3748 35.9905 22.556C35.2499 22.9105 34.2115 23.0459 32.9565 23.0459C31.0273 23.0459 29.6039 22.5371 28.5452 21.6302C27.497 20.7325 26.8593 19.4895 26.4092 18.1207L21.3287 21.2778ZM21.3287 21.2778L22.1115 23.4056C22.0884 23.4231 22.0636 23.4415 22.0372 23.4607C21.8109 23.6253 21.463 23.8501 20.9907 24.0766C20.0478 24.5289 18.6032 24.9911 16.63 24.9912C14.1825 24.9912 12.3486 24.277 11.1221 22.9676C9.89076 21.6532 9.20265 19.6656 9.20265 16.9823C9.20265 14.1853 9.89331 12.0376 11.1641 10.5948C12.4262 9.16197 14.3214 8.35531 16.8841 8.35531C19.2475 8.35531 20.9448 8.78254 22.23 9.72249C23.5158 10.6629 24.4614 12.1694 25.2082 14.4816L25.2092 14.4846L26.409 18.1202L21.3287 21.2778ZM48.1566 10.7363H47.6566V11.2363V19.746C47.6566 20.6958 47.8583 21.468 48.3392 22.003C48.8302 22.5494 49.5266 22.7552 50.3021 22.7552C51.2662 22.7552 52.0287 22.5202 52.8008 22.0791L53.261 24.21C52.2064 24.731 50.8887 24.9909 49.3928 24.9909C47.9086 24.9909 46.7851 24.6117 46.0347 23.9083C45.2899 23.2101 44.8382 22.1225 44.8382 20.5455V11.2362V10.7362H44.3382H42.4017V8.75457H44.3382H44.8382V8.25457V5.13309L47.6927 4.78295V8.25471V8.75471H48.1927H52.6749V10.7363H48.1566ZM69.6078 10.7363H69.1078V11.2363V24.5549H66.2895V11.2363H65.7895V10.7363H63.8533V8.75471H65.7897H66.2897V8.25471V6.58163C66.2897 4.42234 66.9754 3.05808 67.9663 2.22296C68.9727 1.37489 70.3689 1.00882 71.8988 1.00882C73.1218 1.00882 74.138 1.19616 75.0042 1.53676L74.5869 3.69759C73.8716 3.38162 73.1467 3.20912 72.1896 3.20912C71.3232 3.20912 70.5159 3.40557 69.9365 4.01447C69.3636 4.61664 69.1078 5.52436 69.1078 6.72721V8.25471V8.75471H69.6078H73.3989V10.7363H69.6078ZM78.8727 11.5631L79.8411 11.651C80.2454 10.4555 80.8985 9.64244 81.6952 9.12333C82.4968 8.60104 83.4782 8.35434 84.5677 8.35434C85.6671 8.35434 86.5761 8.58699 87.2518 9.08801C87.9169 9.58125 88.4175 10.3802 88.6196 11.643L89.1133 11.5639L89.5883 11.7201C89.9914 10.4939 90.6686 9.66386 91.4964 9.13484C92.3303 8.60188 93.3493 8.35426 94.4588 8.3542C95.7723 8.3542 96.8612 8.71196 97.6193 9.43091C98.3723 10.1449 98.8679 11.2809 98.8679 12.9821V24.5544H96.0497V14.327C96.0497 13.2771 95.8517 12.342 95.3411 11.6593C94.8107 10.9501 94.0024 10.5906 92.968 10.5906C91.9599 10.5906 90.9449 10.9426 90.1856 11.771C89.4284 12.5971 88.9769 13.8403 88.9769 15.5275V24.5547H86.1951V14.3271C86.1951 13.2775 85.9971 12.341 85.4802 11.6574C84.9437 10.9479 84.1258 10.5909 83.0768 10.5909C82.0678 10.5909 81.0599 10.9437 80.3093 11.7795C79.5624 12.6112 79.1221 13.8628 79.1221 15.564V24.5549H76.3039V8.75471H78.4626L78.8727 11.5631ZM5.94116 22.5368C6.18938 22.5368 6.41178 22.5186 6.61906 22.487L6.5455 24.6206C5.86878 24.7733 5.31387 24.846 4.74103 24.846C3.70911 24.846 2.80805 24.583 2.17412 24.0566C1.55499 23.5425 1.1319 22.7289 1.1319 21.4911V1.26333H3.95016V20.5821C3.95016 21.209 4.13727 21.728 4.53823 22.0805C4.92727 22.4226 5.43805 22.5368 5.94116 22.5368ZM59.1095 24.773C57.9036 24.773 56.9548 23.8059 56.9548 22.5819C56.9548 21.3264 57.899 20.3914 59.1095 20.3914C60.4016 20.3914 61.3368 21.3353 61.3368 22.5819C61.3368 23.797 60.3972 24.773 59.1095 24.773Z" stroke="black"/>
</g>
<defs>
<filter id="filter0_d_614_465" x="-3.3681" y="0.50882" width="106.736" height="32.9825" filterUnits="userSpaceOnUse" color-interpolation-filters="sRGB">
<feFlood flood-opacity="0" result="BackgroundImageFix"/>
<feColorMatrix in="SourceAlpha" type="matrix" values="0 0 0 0 0 0 0 0 0 0 0 0 0 0 0 0 0 0 127 0" result="hardAlpha"/>
<feOffset dy="4"/>
<feGaussianBlur stdDeviation="2"/>
<feComposite in2="hardAlpha" operator="out"/>
<feColorMatrix type="matrix" values="0 0 0 0 0 0 0 0 0 0 0 0 0 0 0 0 0 0 0.25 0"/>
<feBlend mode="normal" in2="BackgroundImageFix" result="effect1_dropShadow_614_465"/>
<feBlend mode="normal" in="SourceGraphic" in2="effect1_dropShadow_614_465" result="shape"/>
</filter>
</defs>
</svg>
