<svg width="19" height="20" viewBox="0 0 19 20" fill="none" xmlns="http://www.w3.org/2000/svg">
<path d="M7.07693 0.576935C8.93345 0.576935 10.7139 1.31443 12.0267 2.62719C13.3394 3.93994 14.0769 5.72042 14.0769 7.57693C14.0769 9.31078 13.4415 10.9046 12.3969 12.1323L12.6877 12.4231H13.5385L18.9231 17.8077L17.3077 19.4231L11.9231 14.0385V13.1877L11.6323 12.8969C10.3621 13.9811 8.74693 14.5768 7.07693 14.5769C5.22042 14.5769 3.43994 13.8394 2.12719 12.5267C0.814432 11.2139 0.0769348 9.43345 0.0769348 7.57693C0.0769348 5.72042 0.814432 3.93994 2.12719 2.62719C3.43994 1.31443 5.22042 0.576935 7.07693 0.576935V0.576935ZM7.07693 2.73078C4.38463 2.73078 2.23078 4.88463 2.23078 7.57693C2.23078 10.2692 4.38463 12.4231 7.07693 12.4231C9.76924 12.4231 11.9231 10.2692 11.9231 7.57693C11.9231 4.88463 9.76924 2.73078 7.07693 2.73078Z" fill="#FAFAFA"/>
</svg>
